	HIERARCHY
ROOT Hips
{
	OFFSET	0.000000	0.000000	0.000000
	CHANNELS 5 Xposition Yposition Zposition Zrotation Xrotation

		End Site
		{
			OFFSET	0.0	0.0	0.0
		}
}

MOTION 
Frames: 4
Frame Time: 0.02
0 0 0 0 0 
-1 0.5 0 10 90 
-2 1 0 20 180 
-2 1 0 20 180 
